<svg xml:space="preserve" width="315" height="195" viewBox="0 0 78.75 48.75" xmlns="http://www.w3.org/2000/svg"><path d="M16.55375 29.97465c-3.719-.001-6.149-.949-6.941-4.776h-9.563c0 1.532.803 8.036 6.622 10.766 3.26 1.53 6.901 1.799 9.73 1.799l5.844-9.726c-.404.553-1.217 1.938-5.692 1.937m11.902-12.272-6.122 10.187c1.06-2.18-.65-3.334-1.716-3.656-1.791-.687-7.411-1.793-11.058-2.86-1.826-.533-3.285-1.337-4-1.853-.24-.172-4.145-2.726-4.145-8.039 0-2.262 1.129-11.431 15.19-11.431 11.559 0 14.695 6.757 14.971 10.8h-9.455c-.334-1.471-1.664-3.203-5.719-3.229-.935-.006-4.685.098-5.048 2.532-.153 1.025.295 1.734.877 2.173.581.439 1.621.681 1.996.794 1.71.513 5.451 1.234 7.291 1.687 3.213.79 5.506 1.759 6.938 2.895m45.802-17.044h-21.725v7.867h21.725Zm-1.845 14.62h-19.88v7.866h19.88zm-19.879 14.618h21.725v7.867h-21.725Z" fill="#00aae7"/><path d="M43.84325 23.13535h-8.79l8.79-14.629Zm8.69-22.476h-13.837l-10.241 17.043-6.121 10.188-.089.148-5.844 9.726h9.863l4.729-7.871h12.85v7.871h8.69zm14.392 45.453-.675-2.014-.684 2.014zm2.187 2.474h-1.333l-.462-1.343h-2.142l-.454 1.343h-1.297l2.218-6.184h1.251zm-14.86-3.11c0-1.22-.622-1.988-1.483-1.988-.871 0-1.485.76-1.485 1.978v.062c0 1.22.631 1.988 1.493 1.988.862 0 1.475-.76 1.475-1.978zm1.334-.037v.107c0 1.846-1.173 3.153-2.817 3.153-1.654 0-2.809-1.289-2.809-3.135v-.107c0-1.855 1.173-3.153 2.817-3.153 1.654 0 2.809 1.289 2.809 3.135m-8.56 3.147h1.289v-6.184h-1.289Zm-5.882-5.001h1.564v5.001h1.28v-5.001h1.564v-1.183h-4.408zm30.598-1.183h-1.288v6.184h3.804v-1.175h-2.516zm-10.947 3.604-2.382-3.604h-1.181v6.184h1.262v-3.737l2.461 3.737h1.102v-6.184h-1.262zm-22.358.106-.675-2.014-.683 2.014zm-.003-3.71 2.218 6.184h-1.333l-.462-1.343h-2.141l-.453 1.343h-1.297l2.217-6.184zm-27.669 1.183h1.564v5.001h1.279v-5.001h1.565v-1.183h-4.408zm-2.699 2.421-2.383-3.604h-1.183v6.184h1.263v-3.737l2.462 3.737h1.102v-6.184h-1.261zm9.824.044h2.4v-1.156h-2.4v-1.335h2.729v-1.157h-4.008v6.184h4.044v-1.158h-2.765zm-16.564 2.536h1.288v-6.184h-1.288zm24.399-4.099c0-.619-.382-.928-1.04-.928h-.925v1.864h.952c.658 0 1.013-.37 1.013-.928zm.143 1.802 1.323 2.297h-1.475l-1.147-2.032h-.809v2.032h-1.288v-6.184h2.338c.72 0 1.297.203 1.688.591.338.337.524.822.524 1.432v.036c0 .936-.47 1.528-1.154 1.828m6.48-3.887h1.262v6.184h-1.102l-2.463-3.737v3.737h-1.261v-6.184h1.181l2.383 3.604zm45.119 4.34c0-.171-.116-.257-.304-.257h-.373v.506h.382c.192 0 .295-.102.295-.249m.014.515.421.618h-.444l-.367-.555h-.301v.555h-.38v-1.726h.767c.411 0 .676.21.676.57 0 .282-.152.457-.372.538m1.031-.202c0-.798-.615-1.441-1.43-1.441-.82 0-1.439.652-1.439 1.45 0 .798.614 1.439 1.43 1.439.82 0 1.439-.65 1.439-1.448m.188 0c0 .887-.717 1.627-1.627 1.627s-1.62-.73-1.62-1.618c0-.888.718-1.629 1.629-1.629.91 0 1.618.732 1.618 1.62" fill="#005592"/></svg>